<svg xmlns="http://www.w3.org/2000/svg" xmlns:xlink="http://www.w3.org/1999/xlink" width="27" height="30" version="1.1" viewBox="0 0 27 30"><g id="01_Onboarding" fill="none" fill-rule="evenodd" stroke="none" stroke-width="1"><g id="Dashboard-Preview" fill-rule="nonzero" transform="translate(-902.000000, -490.000000)"><g id="col-3" transform="translate(846.000000, 490.000000)"><g id="Icon" transform="translate(56.000000, 0.000000)"><g id="Group-3" transform="translate(3.000000, 4.000000)"><polygon id="Shape" fill="#DEDEDE" points="2.917 2.909 16.964 2.909 16.964 16.956 2.917 16.956" transform="translate(9.940693, 9.932764) rotate(45.000000) translate(-9.940693, -9.932764)"/><path id="Shape" fill="#9AA3AD" stroke="#9AA3AD" d="M9.9406248,12.6478289 L18.9510652,9.7096418 L9.9406248,0.706808361 L0.930184411,9.7096418 L9.9406248,12.6478289 Z"/><polygon id="Shape" fill="#202930" points="4 9 8.131 9 9.902 7.209 11.869 9 16 9 9.902 3"/><polygon id="Shape" fill="#DEDEDE" points="9.941 19.864 9.941 0 19.873 9.932" style="mix-blend-mode:multiply"/></g><rect id="Rectangle-path-Copy" width="1" height="1" x="9" y="0" fill="#12BB9B"/><rect id="Rectangle-path-Copy-4" width="1" height="1" x="16" y="29" fill="#12BB9B"/><rect id="Rectangle-path-Copy-2" width="1" height="1" x="0" y="14" fill="#12BB9B"/><rect id="Rectangle-path-Copy-3" width="1" height="1" x="26" y="15" fill="#12BB9B"/><g id="Group-2" fill="#12BB9B" transform="translate(20.000000, 2.000000)"><rect id="Rectangle-path" width="1" height="1" x="1" y="0"/><rect id="Rectangle-path" width="1" height="1" x="1" y="2"/><rect id="Rectangle-path" width="1" height="1" x="0" y="1"/><rect id="Rectangle-path" width="1" height="1" x="2" y="1"/></g><g id="Group-2-Copy" fill="#12BB9B" transform="translate(5.000000, 25.000000)"><rect id="Rectangle-path" width="1" height="1" x="1" y="0"/><rect id="Rectangle-path" width="1" height="1" x="1" y="2"/><rect id="Rectangle-path" width="1" height="1" x="0" y="1"/><rect id="Rectangle-path" width="1" height="1" x="2" y="1"/></g><g id="Group-2-Copy-2" fill="#12BB9B" transform="translate(2.000000, 5.000000)"><rect id="Rectangle-path" width="1" height="1" x="1" y="0"/><rect id="Rectangle-path" width="1" height="1" x="1" y="2"/><rect id="Rectangle-path" width="1" height="1" x="0" y="1"/><rect id="Rectangle-path" width="1" height="1" x="2" y="1"/></g></g></g></g></g></svg>