<svg xmlns="http://www.w3.org/2000/svg" xmlns:xlink="http://www.w3.org/1999/xlink" width="486" height="175" viewBox="0 0 486 175"><linearGradient id="a" x1="25.344%" x2="74.403%" y1="-24.61%" y2="102.152%"><stop offset="0" stop-color="#101a20"/><stop offset=".231" stop-color="#121d23"/><stop offset=".48" stop-color="#0b1216"/><stop offset=".958" stop-color="#090909"/><stop offset="1" stop-color="#010203"/></linearGradient><g fill="none" transform="translate(0 -1)"><path fill="#152128" d="m260 175.67c-58.5.83-65.49-25.28-123.5-35.17-44-7.5-75-29-72.5-71 2.37-39.83 45.5-69.44 124.68-51.92 44.82 9.92 72.37 12.19 116.49 3.63 42.33-8.21 103.33-.1 111.5 42.46 12.66 66-80.67 110.91-156.67 112z"/><path fill="url(#a)" d="m260 175.67c-58.5.83-65.49-25.28-123.5-35.17-44-7.5-75-29-72.5-71 2.37-39.83 45.5-69.44 124.68-51.92 44.82 9.92 72.37 12.19 116.49 3.63 42.33-8.21 103.33-.1 111.5 42.46 12.66 66-80.67 110.91-156.67 112z"/><circle cx="242.998" cy="78.964" r="67" fill="#cecece" transform="matrix(.99909335 -.04257316 .04257316 .99909335 -3.141427 10.416798)"/><path fill="#b2b2b2" d="m295 36.67c21.406165 26.2515482 19.851894 64.350493-3.621477 88.771152-23.473371 24.420658-61.48106 27.480228-88.558523 7.128848-2.5-1.88 31.88 3.87 64.83-32.28 23.07-25.29 26.6-64.5 27.35-63.62z"/><path fill="#d8d8d8" d="m.69 68.99h-.01.01l-.69 12.55 4.82-5.5z"/><path fill="#acacac" d="m.69 68.98v.01l4.13 7.05 7.15-1.52-11.28-5.53z"/><path fill="#bec0c2" d="m4.82 76.03-4.82 5.51 6.99-1.8 4.98-5.22z"/><g fill="#22c6a3"><path d="m129.09 9.35h2.68v2.68h-2.68z"/><path d="m129.09 14.71h2.68v2.68h-2.68z"/><path d="m131.77 12.04h2.68v2.68h-2.68z" transform="matrix(0 -1 1 0 119.73 146.49)"/><path d="m126.41 12.04h2.68v2.68h-2.68z" transform="matrix(0 -1 1 0 114.37 141.13)"/><path d="m126.41 12.04h2.68v2.68h-2.68z" transform="matrix(0 -1 1 0 114.37 141.13)"/><path d="m458.57 84.78h2.68v2.68h-2.68z"/><path d="m458.57 90.14h2.68v2.68h-2.68z"/><path d="m461.25 87.46h2.68v2.68h-2.68z" transform="matrix(0 -1 1 0 373.79 551.39)"/><path d="m455.89 87.45h2.68v2.68h-2.68z" transform="matrix(0 -1 1 0 368.44 546.02)"/><path d="m455.89 87.45h2.68v2.68h-2.68z" transform="matrix(0 -1 1 0 368.44 546.02)"/></g><path fill="#f4b7a1" d="m398.08 56.39-10.88 6.72 7.39.83v.01z"/><path fill="#e5a693" d="m398.08 56.39-3.49 7.56 5.43 5.09z"/><path fill="#e79280" d="m394.6 63.94-7.41-.83 5.57 4.8 7.26 1.13z"/><circle cx="32.389" cy="3.288" r="1.87" fill="#d3d3d3" transform="matrix(.95881973 -.28401534 .28401534 .95881973 .399798 9.334256)"/><path fill="#b2b2b2" d="m33.54 4.76c-.81462.63512746-1.9898725.48962001-2.625-.325s-.48962-1.98987254.325-2.625c.39-.3.06.82.82 1.8s1.94.82 1.48 1.15z"/><path fill="#313d47" d="m81.14 52.55 3.95 6.38 7.44-.31-4.11-4.68z"/><path fill="#4c5b66" d="m92.19 45.72 3.95 6.39-3.61 6.51-2.35-5.77z"/><path fill="#3d4b56" d="m92.53 58.62-.34-12.9-11.05 6.83z"/><path fill="#313d47" d="m84.67 45.91 7.52-.19-11.05 6.83z"/><circle cx="450.728" cy="5.685" r="2.05" fill="#d3d3d3" transform="matrix(.99912283 -.04187565 .04187565 .99912283 .157293 18.879532)"/><path fill="#b2b2b2" d="m451.67 7.46c-.648437.33761598-1.427734.30364897-2.044336-.08910599-.616603-.39275497-.976835-1.08462906-.945-1.815.031834-.73037095.450899-1.38827803 1.099336-1.72589401.48-.25-.1.89.52 2.09s1.9 1.27 1.37 1.54z"/><circle cx="108.624" cy="118.29" r="4.17" fill="#f4b7a1" transform="matrix(.88837696 -.45911477 .45911477 .88837696 -42.183582 63.074842)"/><path fill="#e79280" d="m111.57 121.24c-1.052147 1.052147-2.585685 1.463058-4.022945 1.077945s-2.559887-1.50774-2.945-2.945.025798-2.970798 1.077945-4.022945c.77-.78.34 1.8 2.29 3.75s4.45 1.29 3.6 2.14z"/><path fill="#acacac" d="m353.8 24.09 1.16-4.08 4.37-1.08-1.16 4.08z"/><path fill="#bec0c2" d="m352.02 16.94 2.94 3.07 4.37-1.08-2.94-3.08z"/><path fill="#d8d8d8" d="m352.02 16.94-1.16 4.08 2.93 3.07h.01l1.16-4.08z"/><circle cx="480.906" cy="32.906" r="5.09" fill="#4c5b66" transform="matrix(.96302163 -.26942409 .26942409 .96302163 8.917514 130.784517)"/><path fill="#3d4b56" d="m484 36.94c-1.421417 1.2044609-3.388119 1.5341899-5.124641.859176-1.736522-.675014-2.964209-2.2464535-3.198987-4.0947043-.234779-1.8482508.561025-3.6767293 2.073628-4.7644717 1-.83.15 2.23 2.22 4.88s5.23 2.18 4.03 3.12z"/><path fill="#3d4b56" d="m365.1 111.4-4.85.9-3.39-3.99 4.85-.9z"/><path fill="#313d47" d="m358.57 116.94 1.68-4.64-3.39-3.99-1.68 4.64z"/><path fill="#4c5b66" d="m358.57 116.94 4.86-.9 1.67-4.64-4.85.9z"/></g></svg>