<svg xmlns="http://www.w3.org/2000/svg" xmlns:xlink="http://www.w3.org/1999/xlink" width="48" height="48" version="1.1" viewBox="0 0 48 48"><title>Icon Borrow</title><desc>Created with Sketch.</desc><defs><circle id="path-1" cx="24" cy="24" r="24"/><polygon id="path-2" points="9.941 13.174 0 9.932 9.941 0 19.881 9.932"/></defs><g id="12_Elements" fill="none" fill-rule="evenodd" stroke="none" stroke-width="1"><g id="Elements" transform="translate(-268.000000, -966.000000)"><g id="Icon-Borrow" transform="translate(268.000000, 966.000000)"><g id="Oval-2-Copy-7"><use fill="#202930" fill-rule="evenodd" xlink:href="#path-1"/><circle cx="24" cy="24" r="23" stroke="#9AA3AD" stroke-width="2"/></g><g id="Group-3" fill-rule="nonzero" transform="translate(14.000000, 14.000000)"><polygon id="Shape" fill="#DEDEDE" points="2.917 2.909 16.964 2.909 16.964 16.956 2.917 16.956" transform="translate(9.940693, 9.932764) rotate(45.000000) translate(-9.940693, -9.932764)"/><g id="Shape"><use fill="#9AA3AD" fill-rule="evenodd" xlink:href="#path-2"/><path stroke="#9AA3AD" stroke-width="1" d="M9.9406248,12.6478289 L18.9510652,9.7096418 L9.9406248,0.706808361 L0.930184411,9.7096418 L9.9406248,12.6478289 Z"/></g><polygon id="Shape" fill="#202930" points="4 9 8.131 9 9.902 7.209 11.869 9 16 9 9.902 3"/><polygon id="Shape" fill="#DEDEDE" points="9.941 19.864 9.941 0 19.873 9.932" style="mix-blend-mode:multiply"/></g><rect id="Rectangle-path-Copy" width="1" height="1" x="20" y="10" fill="#12BB9B" fill-rule="nonzero"/><rect id="Rectangle-path-Copy-4" width="1" height="1" x="27" y="39" fill="#12BB9B" fill-rule="nonzero"/><rect id="Rectangle-path-Copy-2" width="1" height="1" x="11" y="24" fill="#12BB9B" fill-rule="nonzero"/><rect id="Rectangle-path-Copy-3" width="1" height="1" x="37" y="25" fill="#12BB9B" fill-rule="nonzero"/><g id="Group-2" fill="#12BB9B" fill-rule="nonzero" transform="translate(31.000000, 12.000000)"><rect id="Rectangle-path" width="1" height="1" x="1" y="0"/><rect id="Rectangle-path" width="1" height="1" x="1" y="2"/><rect id="Rectangle-path" width="1" height="1" x="0" y="1"/><rect id="Rectangle-path" width="1" height="1" x="2" y="1"/></g><g id="Group-2-Copy" fill="#12BB9B" fill-rule="nonzero" transform="translate(16.000000, 35.000000)"><rect id="Rectangle-path" width="1" height="1" x="1" y="0"/><rect id="Rectangle-path" width="1" height="1" x="1" y="2"/><rect id="Rectangle-path" width="1" height="1" x="0" y="1"/><rect id="Rectangle-path" width="1" height="1" x="2" y="1"/></g><g id="Group-2-Copy-2" fill="#12BB9B" fill-rule="nonzero" transform="translate(13.000000, 15.000000)"><rect id="Rectangle-path" width="1" height="1" x="1" y="0"/><rect id="Rectangle-path" width="1" height="1" x="1" y="2"/><rect id="Rectangle-path" width="1" height="1" x="0" y="1"/><rect id="Rectangle-path" width="1" height="1" x="2" y="1"/></g></g></g></g></svg>